<svg width="80" height="80" viewBox="0 0 80 80" fill="none" xmlns="http://www.w3.org/2000/svg">
<path fill-rule="evenodd" clip-rule="evenodd" d="M27.5 40.5C27.5 34.4447 22.3715 29.5 16 29.5L16 28.5C22.8833 28.5 28.5 33.8527 28.5 40.5C28.5 47.1473 22.8833 52.5 16 52.5L16 51.5C22.3715 51.5 27.5 46.5553 27.5 40.5Z" fill="#111111"/>
<path fill-rule="evenodd" clip-rule="evenodd" d="M39.5 28.5C45.5553 28.5 50.5 23.3715 50.5 17L51.5 17C51.5 23.8833 46.1473 29.5 39.5 29.5C32.8527 29.5 27.5 23.8833 27.5 17L28.5 17C28.5 23.3715 33.4447 28.5 39.5 28.5Z" fill="#111111"/>
<path fill-rule="evenodd" clip-rule="evenodd" d="M39.5 52.5C33.4447 52.5 28.5 57.6285 28.5 64L27.5 64C27.5 57.1167 32.8527 51.5 39.5 51.5C46.1473 51.5 51.5 57.1167 51.5 64L50.5 64C50.5 57.6285 45.5553 52.5 39.5 52.5Z" fill="#111111"/>
<path fill-rule="evenodd" clip-rule="evenodd" d="M51.5 40.5C51.5 46.5553 56.6285 51.5 63 51.5L63 52.5C56.1167 52.5 50.5 47.1473 50.5 40.5C50.5 33.8527 56.1167 28.5 63 28.5L63 29.5C56.6285 29.5 51.5 34.4447 51.5 40.5Z" fill="#111111"/>
</svg>
