<svg width="80" height="80" viewBox="0 0 80 80" fill="none" xmlns="http://www.w3.org/2000/svg">
<path fill-rule="evenodd" clip-rule="evenodd" d="M13.5 54.0991C8.5294 54.0991 4.5 58.1284 4.5 63.0991C4.5 68.0697 8.52923 72.0991 13.5 72.0991C18.4706 72.0991 22.5 68.0695 22.5 63.0991C22.5 58.1285 18.4704 54.0991 13.5 54.0991ZM3.5 63.0991C3.5 57.5761 7.97713 53.0991 13.5 53.0991C19.0227 53.0991 23.5 57.5762 23.5 63.0991C23.5 68.6218 19.0229 73.0991 13.5 73.0991C7.97693 73.0991 3.5 68.622 3.5 63.0991Z" fill="#111111"/>
<path fill-rule="evenodd" clip-rule="evenodd" d="M26.498 31.1611C21.5274 31.1611 17.498 35.1904 17.498 40.1611C17.498 45.1317 21.5273 49.1611 26.498 49.1611C31.4686 49.1611 35.498 45.1315 35.498 40.1611C35.498 35.1905 31.4685 31.1611 26.498 31.1611ZM16.498 40.1611C16.498 34.6381 20.9752 30.1611 26.498 30.1611C32.0207 30.1611 36.498 34.6382 36.498 40.1611C36.498 45.6838 32.0209 50.1611 26.498 50.1611C20.975 50.1611 16.498 45.684 16.498 40.1611Z" fill="#111111"/>
<path fill-rule="evenodd" clip-rule="evenodd" d="M53.0996 31.1611C48.129 31.1611 44.0996 35.1904 44.0996 40.1611C44.0996 45.1317 48.1288 49.1611 53.0996 49.1611C58.0702 49.1611 62.0996 45.1315 62.0996 40.1611C62.0996 35.1905 58.07 31.1611 53.0996 31.1611ZM43.0996 40.1611C43.0996 34.6381 47.5767 30.1611 53.0996 30.1611C58.6223 30.1611 63.0996 34.6382 63.0996 40.1611C63.0996 45.6838 58.6225 50.1611 53.0996 50.1611C47.5765 50.1611 43.0996 45.684 43.0996 40.1611Z" fill="#111111"/>
<path fill-rule="evenodd" clip-rule="evenodd" d="M39.9004 54.0991C34.9298 54.0991 30.9004 58.1284 30.9004 63.0991C30.9004 68.0697 34.9296 72.0991 39.9004 72.0991C44.871 72.0991 48.9004 68.0695 48.9004 63.0991C48.9004 58.1285 44.8708 54.0991 39.9004 54.0991ZM29.9004 63.0991C29.9004 57.5761 34.3775 53.0991 39.9004 53.0991C45.4231 53.0991 49.9004 57.5762 49.9004 63.0991C49.9004 68.6218 45.4233 73.0991 39.9004 73.0991C34.3773 73.0991 29.9004 68.622 29.9004 63.0991Z" fill="#111111"/>
<path fill-rule="evenodd" clip-rule="evenodd" d="M66.3008 54.0986C61.3302 54.0986 57.3008 58.1279 57.3008 63.0986C57.3008 68.0692 61.33 72.0986 66.3008 72.0986C71.2714 72.0986 75.3008 68.069 75.3008 63.0986C75.3008 58.128 71.2712 54.0986 66.3008 54.0986ZM56.3008 63.0986C56.3008 57.5756 60.7779 53.0986 66.3008 53.0986C71.8235 53.0986 76.3008 57.5757 76.3008 63.0986C76.3008 68.6213 71.8237 73.0986 66.3008 73.0986C60.7777 73.0986 56.3008 68.6215 56.3008 63.0986Z" fill="#111111"/>
<path fill-rule="evenodd" clip-rule="evenodd" d="M39.9004 8.5C34.9298 8.5 30.9004 12.5292 30.9004 17.5C30.9004 22.4706 34.9296 26.5 39.9004 26.5C44.871 26.5 48.9004 22.4704 48.9004 17.5C48.9004 12.5294 44.8708 8.5 39.9004 8.5ZM29.9004 17.5C29.9004 11.9769 34.3775 7.5 39.9004 7.5C45.4231 7.5 49.9004 11.9771 49.9004 17.5C49.9004 23.0227 45.4233 27.5 39.9004 27.5C34.3773 27.5 29.9004 23.0229 29.9004 17.5Z" fill="#111111"/>
</svg>
