<svg width="80" height="80" viewBox="0 0 80 80" fill="none" xmlns="http://www.w3.org/2000/svg">
<path fill-rule="evenodd" clip-rule="evenodd" d="M27.4892 33.7437L13.6328 25.7437L14.1328 24.8776L27.9892 32.8776L27.4892 33.7437Z" fill="#111111"/>
<path fill-rule="evenodd" clip-rule="evenodd" d="M38.2763 37.6369L30.1777 23.8379L31.0473 23.3441L39.1459 37.1432L38.2763 37.6369Z" fill="#111111"/>
<path fill-rule="evenodd" clip-rule="evenodd" d="M25.818 40.5286L9.81836 40.4146L9.82555 41.4145L25.8251 41.5286L25.818 40.5286Z" fill="#111111"/>
<path fill-rule="evenodd" clip-rule="evenodd" d="M28.0014 47.0431L14.0879 54.9434L14.5941 55.8058L28.5076 47.9056L28.0014 47.0431Z" fill="#111111"/>
<path fill-rule="evenodd" clip-rule="evenodd" d="M40.0369 26.1949L39.9219 10.1953L40.9218 10.2024L41.0368 26.202L40.0369 26.1949Z" fill="#111111"/>
<path fill-rule="evenodd" clip-rule="evenodd" d="M46.6777 27.5103L49.5586 22.5205L50.4246 23.0205L47.5438 28.0103L46.6777 27.5103Z" fill="#111111"/>
<path fill-rule="evenodd" clip-rule="evenodd" d="M28.1758 59.5546L36.1758 45.6982L37.0418 46.1982L29.0418 60.0546L28.1758 59.5546Z" fill="#111111"/>
<path fill-rule="evenodd" clip-rule="evenodd" d="M52.3643 46.6577L66.2207 54.6577L65.7207 55.5237L51.8643 47.5237L52.3643 46.6577Z" fill="#111111"/>
<path fill-rule="evenodd" clip-rule="evenodd" d="M46.8412 52.3414L50.5882 58.8316L49.7151 59.3192L45.968 52.829L46.8412 52.3414Z" fill="#111111"/>
<path fill-rule="evenodd" clip-rule="evenodd" d="M54.4008 39.24L70.4004 39.354L70.3932 38.354L54.3936 38.24L54.4008 39.24Z" fill="#111111"/>
<path fill-rule="evenodd" clip-rule="evenodd" d="M52.2193 32.7235L66.1328 24.8232L65.6267 23.9608L51.7131 31.861L52.2193 32.7235Z" fill="#111111"/>
<path fill-rule="evenodd" clip-rule="evenodd" d="M39.6819 54.4394L39.7969 70.439L38.7969 70.4318L38.6819 54.4323L39.6819 54.4394Z" fill="#111111"/>
</svg>
