<svg width="80" height="80" viewBox="0 0 80 80" fill="none" xmlns="http://www.w3.org/2000/svg">
<path fill-rule="evenodd" clip-rule="evenodd" d="M40 45.5C33.6487 45.5 28.5 50.6487 28.5 57L27.5 57C27.5 50.0964 33.0964 44.5 40 44.5C46.9036 44.5 52.5 50.0964 52.5 57L51.5 57C51.5 50.6487 46.3513 45.5 40 45.5Z" fill="#111111"/>
<path fill-rule="evenodd" clip-rule="evenodd" d="M40 22.5C20.9462 22.5 5.5 37.9462 5.50001 57L4.50001 57C4.5 37.3939 20.3939 21.5 40 21.5C59.6061 21.5 75.5 37.3939 75.5 57L74.5 57C74.5 37.9462 59.0538 22.5 40 22.5Z" fill="#111111"/>
<path fill-rule="evenodd" clip-rule="evenodd" d="M40 34.5C27.5736 34.5 17.5 44.5736 17.5 57L16.5 57C16.5 44.0213 27.0213 33.5 40 33.5C52.9787 33.5 63.5 44.0213 63.5 57L62.5 57C62.5 44.5736 52.4264 34.5 40 34.5Z" fill="#111111"/>
</svg>
