<svg width="80" height="80" viewBox="0 0 80 80" fill="none" xmlns="http://www.w3.org/2000/svg">
<path fill-rule="evenodd" clip-rule="evenodd" d="M3.5 3.5H36.5001V36.5011H3.5V3.5ZM4.5 4.5V35.5011H35.5001V4.5H4.5Z" fill="#111111"/>
<path fill-rule="evenodd" clip-rule="evenodd" d="M43.5 3.5H76.5001V36.5011H43.5V3.5ZM44.5 4.5V35.5011H75.5001V4.5H44.5Z" fill="#111111"/>
<path fill-rule="evenodd" clip-rule="evenodd" d="M3.5 43.5015H36.5001V76.5026H3.5V43.5015ZM4.5 44.5015V75.5026H35.5001V44.5015H4.5Z" fill="#111111"/>
<path fill-rule="evenodd" clip-rule="evenodd" d="M60.0001 44.5024C51.4396 44.5024 44.5 51.4419 44.5 60.003C44.5 68.5638 51.4393 75.5035 60.0001 75.5035C68.5605 75.5035 75.5001 68.5635 75.5001 60.003C75.5001 51.4422 68.5602 44.5024 60.0001 44.5024ZM43.5 60.003C43.5 50.8896 50.8873 43.5024 60.0001 43.5024C69.1125 43.5024 76.5001 50.8899 76.5001 60.003C76.5001 69.1157 69.1129 76.5035 60.0001 76.5035C50.8869 76.5035 43.5 69.116 43.5 60.003Z" fill="#111111"/>
</svg>
