<svg width="60" height="35" viewBox="0 0 60 35" fill="none" xmlns="http://www.w3.org/2000/svg">
<path d="M8.55328 7.864V25H9.94528V22.648H9.99328C10.3453 23.512 10.9133 24.176 11.6973 24.64C12.4973 25.104 13.4013 25.336 14.4093 25.336C15.3533 25.336 16.1693 25.168 16.8573 24.832C17.5613 24.48 18.1453 24.008 18.6093 23.416C19.0733 22.808 19.4173 22.112 19.6413 21.328C19.8653 20.528 19.9773 19.688 19.9773 18.808C19.9773 17.928 19.8653 17.096 19.6413 16.312C19.4173 15.512 19.0733 14.816 18.6093 14.224C18.1453 13.616 17.5613 13.136 16.8573 12.784C16.1693 12.432 15.3533 12.256 14.4093 12.256C13.9613 12.256 13.5133 12.312 13.0653 12.424C12.6173 12.536 12.2013 12.712 11.8173 12.952C11.4333 13.176 11.0893 13.456 10.7853 13.792C10.4973 14.128 10.2733 14.52 10.1133 14.968H10.0653V7.864H8.55328ZM18.4653 18.808C18.4653 19.448 18.3853 20.088 18.2253 20.728C18.0813 21.352 17.8413 21.912 17.5053 22.408C17.1853 22.904 16.7693 23.312 16.2573 23.632C15.7453 23.936 15.1293 24.088 14.4093 24.088C13.6093 24.088 12.9293 23.936 12.3693 23.632C11.8253 23.312 11.3773 22.904 11.0253 22.408C10.6893 21.912 10.4413 21.352 10.2813 20.728C10.1373 20.088 10.0653 19.448 10.0653 18.808C10.0653 18.168 10.1373 17.536 10.2813 16.912C10.4413 16.272 10.6893 15.704 11.0253 15.208C11.3773 14.712 11.8253 14.312 12.3693 14.008C12.9293 13.688 13.6093 13.528 14.4093 13.528C15.1293 13.528 15.7453 13.688 16.2573 14.008C16.7693 14.312 17.1853 14.712 17.5053 15.208C17.8413 15.704 18.0813 16.272 18.2253 16.912C18.3853 17.536 18.4653 18.168 18.4653 18.808ZM31.2385 17.944H23.2225C23.2865 17.384 23.4145 16.84 23.6065 16.312C23.8145 15.768 24.0865 15.296 24.4225 14.896C24.7585 14.48 25.1665 14.152 25.6465 13.912C26.1265 13.656 26.6785 13.528 27.3025 13.528C27.9105 13.528 28.4545 13.656 28.9345 13.912C29.4145 14.152 29.8225 14.48 30.1585 14.896C30.4945 15.296 30.7505 15.76 30.9265 16.288C31.1185 16.816 31.2225 17.368 31.2385 17.944ZM23.2225 19.216H32.7505C32.7825 18.352 32.7025 17.504 32.5105 16.672C32.3185 15.824 31.9985 15.08 31.5505 14.44C31.1185 13.784 30.5505 13.256 29.8465 12.856C29.1425 12.456 28.2945 12.256 27.3025 12.256C26.3265 12.256 25.4785 12.448 24.7585 12.832C24.0545 13.2 23.4785 13.696 23.0305 14.32C22.5825 14.928 22.2465 15.624 22.0225 16.408C21.8145 17.192 21.7105 17.992 21.7105 18.808C21.7105 19.688 21.8145 20.528 22.0225 21.328C22.2465 22.112 22.5825 22.808 23.0305 23.416C23.4785 24.008 24.0545 24.48 24.7585 24.832C25.4785 25.168 26.3265 25.336 27.3025 25.336C28.8705 25.336 30.0785 24.952 30.9265 24.184C31.7905 23.416 32.3825 22.328 32.7025 20.92H31.1905C30.9505 21.88 30.5185 22.648 29.8945 23.224C29.2705 23.8 28.4065 24.088 27.3025 24.088C26.5825 24.088 25.9665 23.936 25.4545 23.632C24.9425 23.328 24.5185 22.944 24.1825 22.48C23.8465 22.016 23.5985 21.496 23.4385 20.92C23.2945 20.328 23.2225 19.76 23.2225 19.216ZM37.1798 12.616V8.896H35.6678V12.616H33.5078V13.888H35.6678V22.36C35.6518 23.416 35.8438 24.144 36.2438 24.544C36.6438 24.928 37.3478 25.12 38.3558 25.12C38.5798 25.12 38.8038 25.112 39.0278 25.096C39.2518 25.08 39.4758 25.072 39.6998 25.072V23.8C39.2678 23.848 38.8358 23.872 38.4038 23.872C37.8598 23.84 37.5158 23.688 37.3718 23.416C37.2438 23.128 37.1798 22.736 37.1798 22.24V13.888H39.6998V12.616H37.1798ZM41.7374 16.408H43.2494C43.2814 15.4 43.6014 14.672 44.2094 14.224C44.8174 13.76 45.6014 13.528 46.5614 13.528C47.0094 13.528 47.4254 13.568 47.8094 13.648C48.2094 13.712 48.5534 13.84 48.8414 14.032C49.1454 14.224 49.3774 14.488 49.5374 14.824C49.7134 15.144 49.8014 15.56 49.8014 16.072C49.8014 16.408 49.7534 16.68 49.6574 16.888C49.5774 17.096 49.4574 17.264 49.2974 17.392C49.1374 17.504 48.9374 17.584 48.6974 17.632C48.4574 17.68 48.1774 17.72 47.8574 17.752C47.0414 17.848 46.2334 17.952 45.4334 18.064C44.6494 18.16 43.9374 18.336 43.2974 18.592C42.6734 18.848 42.1694 19.224 41.7854 19.72C41.4014 20.2 41.2094 20.872 41.2094 21.736C41.2094 22.36 41.3134 22.904 41.5214 23.368C41.7454 23.816 42.0414 24.192 42.4094 24.496C42.7934 24.784 43.2334 24.992 43.7294 25.12C44.2414 25.264 44.7854 25.336 45.3614 25.336C45.9694 25.336 46.4894 25.28 46.9214 25.168C47.3694 25.056 47.7614 24.896 48.0974 24.688C48.4494 24.48 48.7614 24.224 49.0334 23.92C49.3214 23.6 49.6014 23.24 49.8734 22.84H49.9214C49.9214 23.16 49.9374 23.456 49.9694 23.728C50.0174 23.984 50.1054 24.208 50.2334 24.4C50.3614 24.592 50.5374 24.744 50.7614 24.856C51.0014 24.952 51.3134 25 51.6974 25C51.9054 25 52.0734 24.992 52.2014 24.976C52.3454 24.96 52.5054 24.936 52.6814 24.904V23.632C52.5374 23.696 52.3774 23.728 52.2014 23.728C51.6094 23.728 51.3134 23.424 51.3134 22.816V16.24C51.3134 15.408 51.1774 14.736 50.9054 14.224C50.6334 13.696 50.2814 13.288 49.8494 13C49.4174 12.712 48.9294 12.52 48.3854 12.424C47.8414 12.312 47.2974 12.256 46.7534 12.256C46.0334 12.256 45.3774 12.336 44.7854 12.496C44.1934 12.656 43.6734 12.904 43.2254 13.24C42.7934 13.576 42.4494 14.008 42.1934 14.536C41.9374 15.064 41.7854 15.688 41.7374 16.408ZM49.8014 18.232V20.2C49.8014 20.808 49.6814 21.352 49.4414 21.832C49.2174 22.312 48.9054 22.72 48.5054 23.056C48.1214 23.392 47.6654 23.648 47.1374 23.824C46.6094 24 46.0574 24.088 45.4814 24.088C45.1294 24.088 44.7854 24.032 44.4494 23.92C44.1134 23.808 43.8174 23.648 43.5614 23.44C43.3054 23.216 43.0974 22.96 42.9374 22.672C42.7934 22.368 42.7214 22.024 42.7214 21.64C42.7214 21.032 42.8974 20.568 43.2494 20.248C43.6174 19.912 44.0814 19.656 44.6414 19.48C45.2014 19.304 45.8174 19.176 46.4894 19.096C47.1774 19 47.8414 18.896 48.4814 18.784C48.6894 18.752 48.9294 18.696 49.2014 18.616C49.4734 18.536 49.6574 18.408 49.7534 18.232H49.8014Z" fill="black"/>
<rect x="0.5" y="0.5" width="59" height="34" rx="7.5" stroke="black"/>
</svg>
