<svg width="900" height="900" viewBox="0 0 900 900" fill="none" xmlns="http://www.w3.org/2000/svg">
<g clip-path="url(#clip0)">
<rect width="900" height="900" fill="#214F5F"/>
<circle cx="450" cy="450" r="270" fill="#FF693A"/>
<path d="M832.328 638.235C825.512 653.422 808.658 663.567 783.363 668.597C758.114 673.618 724.802 673.462 685.694 668.361C607.496 658.162 506.472 628.244 401.191 580.991C295.909 533.738 206.409 478.144 146.814 426.499C117.009 400.669 94.7506 375.885 81.7196 353.683C68.6649 331.441 65.0429 312.105 71.8589 296.919C78.6749 281.732 95.5287 271.587 120.824 266.557C146.073 261.536 179.385 261.692 218.493 266.793C296.691 276.992 397.714 306.911 502.996 354.164C608.278 401.417 697.778 457.01 757.373 508.656C787.178 534.485 809.436 559.269 822.467 581.471C835.522 603.714 839.144 623.049 832.328 638.235Z" stroke="#BFA8FF" stroke-width="3"/>
<path d="M831.178 295.163C838.064 310.318 834.531 329.67 821.58 351.972C808.651 374.234 786.508 399.121 756.823 425.088C697.467 477.009 608.225 533.015 503.162 580.754C398.1 628.493 297.216 658.878 219.066 669.439C179.982 674.72 146.671 675.031 121.399 670.127C96.081 665.214 79.1805 655.146 72.2944 639.991C65.4083 624.837 68.9408 605.485 81.8926 583.182C94.8208 560.92 116.964 536.033 146.649 510.066C206.006 458.146 295.248 402.139 400.31 354.4C505.372 306.661 606.256 276.276 684.406 265.716C723.49 260.434 756.801 260.124 782.073 265.028C807.391 269.941 824.292 280.009 831.178 295.163Z" stroke="#BFA8FF" stroke-width="3"/>
</g>
<defs>
<clipPath id="clip0">
<rect width="900" height="900" fill="white"/>
</clipPath>
</defs>
</svg>
