<svg width="80" height="80" viewBox="0 0 80 80" fill="none" xmlns="http://www.w3.org/2000/svg">
<path d="M23 63.0991C23 68.3457 18.7467 72.5991 13.5 72.5991C8.25308 72.5991 4 68.3459 4 63.0991C4 57.8522 8.25326 53.5991 13.5 53.5991C18.7465 53.5991 23 57.8524 23 63.0991" stroke="black"/>
<path d="M35.998 40.1611C35.998 45.4077 31.7448 49.6611 26.498 49.6611C21.2511 49.6611 16.998 45.4079 16.998 40.1611C16.998 34.9142 21.2513 30.6611 26.498 30.6611C31.7446 30.6611 35.998 34.9144 35.998 40.1611" stroke="black"/>
<path d="M62.5996 40.1609C62.5996 45.4074 58.3463 49.6609 53.0996 49.6609C47.8527 49.6609 43.5996 45.4076 43.5996 40.1609C43.5996 34.914 47.8529 30.6609 53.0996 30.6609C58.3462 30.6609 62.5996 34.9142 62.5996 40.1609" stroke="black"/>
<path d="M49.4004 63.0991C49.4004 68.3457 45.1471 72.5991 39.9004 72.5991C34.6535 72.5991 30.4004 68.3459 30.4004 63.0991C30.4004 57.8522 34.6537 53.5991 39.9004 53.5991C45.1469 53.5991 49.4004 57.8524 49.4004 63.0991" stroke="black"/>
<path d="M75.8008 63.0989C75.8008 68.3454 71.5475 72.5989 66.3008 72.5989C61.0539 72.5989 56.8008 68.3456 56.8008 63.0989C56.8008 57.852 61.054 53.5989 66.3008 53.5989C71.5473 53.5989 75.8008 57.8521 75.8008 63.0989" stroke="black"/>
<path d="M49.4004 17.5C49.4004 22.7465 45.1471 27 39.9004 27C34.6535 27 30.4004 22.7467 30.4004 17.5C30.4004 12.2531 34.6537 8 39.9004 8C45.1469 8 49.4004 12.2533 49.4004 17.5" stroke="black"/>
</svg>
