<svg width="900" height="900" viewBox="0 0 900 900" fill="none" xmlns="http://www.w3.org/2000/svg">
<g clip-path="url(#clip0)">
<rect width="900" height="900" fill="white"/>
<path d="M465.979 107.928L507.086 270.419C510.981 285.819 527.857 293.947 542.327 287.394L695.12 218.194C718.294 207.698 740.131 235.109 724.722 255.352L623.254 388.65C613.621 401.303 617.794 419.591 631.962 426.813L781.272 502.929C803.942 514.486 796.149 548.663 770.71 549.25L603.07 553.12C587.18 553.487 575.493 568.144 578.675 583.717L612.207 747.86C617.298 772.779 585.739 787.992 569.415 768.488L461.782 639.887C451.589 627.708 432.865 627.708 422.672 639.887L315.039 768.488C298.715 787.993 267.156 772.779 272.247 747.86L305.779 583.717C308.961 568.144 297.274 553.487 281.384 553.12L113.744 549.25C88.3052 548.663 80.5125 514.486 103.182 502.929L252.492 426.813C266.66 419.591 270.833 401.304 261.201 388.65L159.732 255.352C144.323 235.109 166.16 207.698 189.334 218.194L342.127 287.394C356.597 293.947 373.473 285.819 377.369 270.419L418.475 107.928C424.712 83.2724 459.742 83.2724 465.979 107.928Z" fill="#BFA8FF" stroke="black"/>
<path d="M701.778 285.649C795.468 265.501 861.747 266.77 873.562 294.167C895.797 345.728 721.857 470.308 485.057 572.424C248.257 674.539 38.2683 715.521 16.0334 663.96C5.21376 638.87 40.8459 596.49 107.569 547.822" stroke="black"/>
</g>
<defs>
<clipPath id="clip0">
<rect width="900" height="900" fill="white"/>
</clipPath>
</defs>
</svg>
