<svg width="160" height="79" viewBox="0 0 160 79" fill="none" xmlns="http://www.w3.org/2000/svg">
<g clip-path="url(#clip0_3555_3596)">
<path d="M24.1043 78.7071L0 70.2775L1.08229 67.1827L7.98426 69.5964L8.16173 69.5012L25.2356 75.4722L24.1043 78.7071ZM10.0475 71.3796C8.56825 70.8623 7.20451 70.0271 5.95629 68.8741C4.70029 67.7184 3.81224 66.285 3.29217 64.574C2.77209 62.863 2.87009 60.9837 3.58617 58.9361C3.65696 58.7336 3.74099 58.5184 3.83824 58.2902C3.92771 58.0594 4.02905 57.8196 4.14226 57.5708L7.17865 58.6327C7.08918 58.8636 7.00769 59.0841 6.93418 59.2943C6.85288 59.5018 6.78364 59.6873 6.72646 59.8508C6.12201 61.5792 5.93304 63.1689 6.15956 64.62C6.38102 66.0605 6.9874 67.3124 7.97869 68.3755C8.97271 69.4309 10.3106 70.2527 11.9923 70.8408L11.6124 71.9269L10.0475 71.3796Z" fill="black"/>
<path d="M42.7005 47.8156C42.0406 48.6078 41.3871 49.1476 40.7398 49.4349C40.0914 49.7107 39.4251 49.7568 38.7407 49.5732C38.05 49.3843 37.3117 48.9626 36.5259 48.308L34.9511 47.1251L25.2357 39.0327C24.5069 38.4256 23.766 38.0715 23.013 37.9703C22.2537 37.8638 21.4485 38.0572 20.5974 38.5506C19.7517 39.0376 18.8484 39.8578 17.8877 41.0113C16.853 42.2534 16.1557 43.374 15.7959 44.3731C15.436 45.3722 15.405 46.3179 15.703 47.2102C16.001 48.1025 16.6365 49.0021 17.6093 49.909L15.4476 52.5042C14.1452 51.3228 13.2515 50.0632 12.7665 48.7252C12.2815 47.3873 12.2653 45.9247 12.718 44.3374C13.176 42.7437 14.1704 41.0279 15.7012 39.1901C17.1212 37.4853 18.5165 36.2805 19.8871 35.5759C21.2566 34.8595 22.5619 34.5942 23.8028 34.7798C25.0489 34.959 26.2297 35.5132 27.3451 36.4422L38.4674 45.7066C38.7779 45.9652 39.0742 46.1315 39.3562 46.2053C39.6381 46.2792 39.9117 46.2601 40.1767 46.1481C40.4417 46.0361 40.7062 45.8217 40.9702 45.5048C41.0969 45.3527 41.2288 45.1943 41.3661 45.0295C41.5023 44.8531 41.6385 44.6767 41.7747 44.5003L43.847 46.2265C43.6992 46.4684 43.524 46.7303 43.3213 47.0123C43.1239 47.288 42.9169 47.5557 42.7005 47.8156ZM34.4689 58.4133C33.3128 59.8012 32.087 60.8089 30.7914 61.4365C29.4957 62.0641 28.2016 62.2904 26.9089 62.1154C25.61 61.9351 24.3774 61.3593 23.2113 60.388C22.1276 59.4853 21.3781 58.4585 20.9628 57.3075C20.5476 56.1565 20.5119 54.8333 20.8558 53.3378C21.1934 51.8371 21.9666 50.1678 23.1754 48.33L25.3432 45.0315C25.9534 44.0799 26.3524 43.2529 26.5402 42.5506C26.7217 41.843 26.7052 41.212 26.4907 40.6577C26.2814 40.0969 25.8631 39.5553 25.2357 39.0327L26.3111 38.2056C27.3948 39.1082 28.1554 39.9349 28.5927 40.6857C29.0301 41.4364 29.1744 42.249 29.0257 43.1235C28.877 43.9979 28.4079 45.0509 27.6182 46.2824L25.528 49.5651C24.7077 50.8463 24.1667 51.979 23.9051 52.9633C23.6423 53.936 23.6362 54.8003 23.8866 55.5564C24.1424 56.3062 24.6442 56.9925 25.392 57.6154C26.1208 58.2224 26.8897 58.5945 27.6986 58.7316C28.5013 58.8634 29.3213 58.736 30.1586 58.3493C30.9896 57.9573 31.7984 57.2892 32.585 56.3449C33.5827 55.1471 34.2709 53.8634 34.6497 52.4936C35.0338 51.1175 35.0076 49.7377 34.5712 48.3544C34.14 46.9647 33.2273 45.6893 31.833 44.5279L32.6961 43.4917L34.778 45.2258C35.9072 46.628 36.6483 48.0773 37.0014 49.5736C37.3534 51.0583 37.3163 52.5463 36.8899 54.0375C36.4636 55.5288 35.6566 56.9874 34.4689 58.4133Z" fill="black"/>
<path d="M46.2118 46.1674L32.0331 24.9296L34.8833 23.0268L49.062 44.2645L46.2118 46.1674ZM30.2951 22.3264L27.5817 18.262L30.4319 16.3591L33.1453 20.4235L30.2951 22.3264Z" fill="black"/>
<path d="M52.0947 41.3607L44.6721 16.9275L47.8091 15.9745L49.9129 22.8996L50.0729 22.9157L55.3738 40.3646L52.0947 41.3607ZM63.8764 20.5972C63.4448 19.1766 62.8457 18.0699 62.079 17.277C61.3099 16.4763 60.402 15.9849 59.3554 15.8029C58.3064 15.6129 57.1269 15.717 55.8168 16.115C54.5778 16.4914 53.51 17.1476 52.6134 18.0838C51.7144 19.012 51.1162 20.2066 50.8187 21.6676C50.5291 23.1262 50.6617 24.797 51.2165 26.6801L48.9318 27.3742L47.7523 23.4914L48.9715 23.121C48.88 21.5713 49.0756 20.1154 49.5584 18.7533C50.0387 17.3833 50.8012 16.1905 51.8461 15.1748C52.8909 14.1592 54.1788 13.4188 55.7098 12.9537C57.5092 12.4071 59.1563 12.2816 60.6513 12.5774C62.1541 12.8708 63.4475 13.5813 64.5314 14.7089C65.6207 15.8261 66.4519 17.3278 67.0249 19.214L71.923 35.337L68.6558 36.3296L63.8764 20.5972Z" fill="black"/>
<path d="M87.9582 37.282C85.7997 36.9384 84.0253 36.0964 82.6351 34.756C81.2544 33.4087 80.3108 31.6758 79.8045 29.5574C79.2982 27.4389 79.2544 25.0642 79.6732 22.4332L79.6888 22.3355C80.1118 19.7303 80.8916 17.5075 82.028 15.6673C83.1658 13.8189 84.5988 12.4768 86.327 11.6411C88.0647 10.7986 90.0087 10.5485 92.1591 10.8908C94.3828 11.2447 96.2386 12.0997 97.7266 13.4557C99.2226 14.813 100.26 16.5567 100.84 18.6868C101.42 20.8169 101.5 23.2015 101.079 25.8406C100.659 28.4798 99.8431 30.7218 98.6308 32.5666C97.4184 34.4115 95.8904 35.7468 94.0469 36.5725C92.2115 37.3994 90.1819 37.636 87.9582 37.282ZM76.1266 34.7973L81.6656 0L85.05 0.538726L82.4361 16.9599L82.0085 16.8919L80.1842 28.3525L80.4652 28.3972L79.3644 35.3127L76.1266 34.7973ZM87.8649 34.2479C89.494 34.5073 90.9828 34.31 92.3313 33.656C93.6811 32.9939 94.8104 31.9334 95.7191 30.4745C96.6291 29.0075 97.2501 27.2313 97.582 25.1461C97.9139 23.0609 97.8706 21.2082 97.452 19.5882C97.0428 17.9612 96.2955 16.648 95.2102 15.6484C94.1262 14.6406 92.7656 14.0065 91.1284 13.7459C89.4748 13.4827 87.971 13.6692 86.617 14.3056C85.271 14.9432 84.145 15.9834 83.2389 17.426C82.3409 18.8699 81.7266 20.6304 81.396 22.7075C81.0653 24.7846 81.1027 26.6488 81.508 28.3001C81.9214 29.9528 82.6688 31.2911 83.7502 32.3152C84.8398 33.3405 86.2114 33.9847 87.8649 34.2479Z" fill="black"/>
<path d="M109.903 46.3755C107.953 44.9898 106.549 43.3137 105.69 41.3472C104.843 39.3788 104.588 37.2806 104.927 35.0525C105.271 32.8176 106.212 30.6179 107.751 28.4531C109.29 26.2884 111.056 24.6797 113.048 23.6271C115.046 22.5678 117.111 22.1181 119.244 22.2781C121.388 22.4361 123.435 23.208 125.385 24.5938C127.321 25.97 128.709 27.6399 129.55 29.6035C130.402 31.5652 130.656 33.6634 130.312 35.8983C129.973 38.1264 129.035 40.3228 127.496 42.4875C125.957 44.6522 124.189 46.2643 122.191 47.3236C120.199 48.3762 118.133 48.8259 115.996 48.6726C113.87 48.5174 111.839 47.7517 109.903 46.3755ZM111.63 43.9453C113.028 44.9392 114.496 45.466 116.032 45.5257C117.568 45.5854 119.07 45.1807 120.538 44.3115C122.017 43.4403 123.368 42.1442 124.592 40.4232C125.815 38.7022 126.592 37.0033 126.924 35.3265C127.267 33.6478 127.158 32.0929 126.597 30.6617C126.036 29.2305 125.056 28.018 123.657 27.0241C122.246 26.0206 120.768 25.4866 119.225 25.4221C117.689 25.3624 116.182 25.7681 114.702 26.6393C113.228 27.5037 111.879 28.7964 110.655 30.5174C109.432 32.2385 108.652 33.9407 108.316 35.6242C107.984 37.301 108.099 38.855 108.66 40.2861C109.228 41.7221 110.218 42.9418 111.63 43.9453Z" fill="black"/>
<path d="M125.032 59.5001L145.191 41.923L146.673 45.2854L136.113 54.2113C134.727 55.381 133.493 56.4068 132.412 57.2886C131.335 58.1779 130.002 59.2339 128.414 60.4566L128.16 59.8792C130.181 59.5565 131.963 59.2849 133.506 59.0645C135.053 58.8517 136.549 58.6566 137.994 58.4795L151.802 56.9239L153.179 60.0486L142.718 69.2009C141.358 70.3682 140.068 71.4503 138.849 72.4472C137.641 73.4484 136.373 74.4669 135.045 75.5029L134.818 74.9268C136.304 74.6593 137.883 74.3963 139.554 74.1378C141.228 73.8868 142.892 73.6538 144.545 73.4388L158.297 71.6644L159.779 75.0269L133.204 78.0446L131.732 74.7048L142.965 64.8201C144.082 63.8588 145.158 62.9565 146.193 62.1131C147.231 61.2772 148.479 60.2854 149.938 59.1377L150.277 59.9076C148.625 60.167 147.1 60.3975 145.701 60.5991C144.314 60.8049 142.868 61.0005 141.363 61.1859L126.503 62.8399L125.032 59.5001Z" fill="black"/>
</g>
<defs>
<clipPath id="clip0_3555_3596">
<rect width="160" height="79" fill="white"/>
</clipPath>
</defs>
</svg>
