<svg width="80" height="40" viewBox="0 0 80 40" fill="none" xmlns="http://www.w3.org/2000/svg">
<g clip-path="url(#clip0_3555_3603)">
<path d="M0 36.9004L11.5794 40L11.9625 38.6035L5.79134 36.9516C5.17796 36.7874 4.64532 36.5337 4.19342 36.1907C3.72656 35.8436 3.3568 35.4353 3.08415 34.9658C2.81554 34.4814 2.65495 33.9546 2.60236 33.3853C2.53481 32.812 2.60316 32.2117 2.80741 31.5842L1.39365 31.2058C1.06497 32.2282 1.05158 33.1844 1.35347 34.0742C1.65942 34.9492 2.235 35.6902 3.08021 36.2972L3.06804 36.3415L0.352715 35.6147L0 36.9004Z" fill="black"/>
<path d="M5.77418 28.601L6.62279 27.4217C5.84482 26.8379 5.44958 26.1847 5.43707 25.4621C5.41193 24.7307 5.66876 23.9905 6.20756 23.2418C6.459 22.8923 6.72406 22.59 7.00275 22.3349C7.27779 22.0584 7.57193 21.861 7.88517 21.7428C8.2074 21.6122 8.54606 21.5776 8.90117 21.6391C9.25263 21.6792 9.6305 21.8412 10.0348 22.125C10.3001 22.3113 10.4879 22.4995 10.5983 22.6897C10.7176 22.8675 10.7829 23.0542 10.7942 23.2499C10.7928 23.4368 10.7438 23.6372 10.647 23.851C10.5502 24.0648 10.4246 24.3054 10.2703 24.5727C9.88808 25.2624 9.51671 25.9502 9.15615 26.6363C8.79193 27.301 8.5313 27.9539 8.37424 28.5951C8.22616 29.2237 8.24019 29.8252 8.41631 30.3997C8.57981 30.9653 9.00267 31.4877 9.68489 31.9667C10.1776 32.3126 10.6655 32.5331 11.1486 32.6281C11.6281 32.7017 12.0911 32.6793 12.5377 32.5608C12.9806 32.421 13.3918 32.1931 13.7713 31.8772C14.1723 31.5577 14.5345 31.1733 14.8578 30.724C15.199 30.2498 15.4467 29.8132 15.6007 29.4141C15.7637 29.0026 15.8574 28.6082 15.8817 28.2308C15.915 27.8409 15.888 27.4556 15.8006 27.075C15.7096 26.6729 15.5825 26.2549 15.4193 25.821L15.4462 25.7836C15.6989 25.961 15.9416 26.1126 16.1743 26.2385C16.4034 26.3429 16.6297 26.3985 16.8531 26.4051C17.0766 26.4117 17.2954 26.3587 17.5095 26.2461C17.72 26.1121 17.933 25.8954 18.1486 25.5959C18.2653 25.4336 18.3533 25.2982 18.4125 25.1895C18.4807 25.0683 18.5515 24.9302 18.625 24.7751L17.6206 24.07C17.5904 24.2178 17.5258 24.3603 17.427 24.4976C17.0948 24.9593 16.6886 25.0216 16.2085 24.6846L11.016 21.0389C10.3591 20.5776 9.75213 20.3111 9.19519 20.2394C8.62562 20.1589 8.1059 20.2072 7.63603 20.3845C7.16616 20.5618 6.74067 20.836 6.35955 21.207C5.96579 21.5693 5.61625 21.9625 5.31093 22.3868C4.90683 22.9484 4.60182 23.5044 4.3959 24.0549C4.18998 24.6053 4.09396 25.1484 4.10783 25.6841C4.13068 26.2073 4.27872 26.7151 4.55196 27.2075C4.82519 27.6999 5.2326 28.1644 5.77418 28.601ZM11.7403 23.3225L13.2943 24.4136C13.7744 24.7507 14.1366 25.1458 14.3809 25.5991C14.6342 26.04 14.7812 26.5095 14.822 27.0078C14.8718 27.4936 14.818 27.9912 14.6607 28.5006C14.5033 29.01 14.263 29.4893 13.9397 29.9386C13.7422 30.2131 13.5049 30.4504 13.2278 30.6503C12.9508 30.8503 12.6584 30.9925 12.3504 31.0769C12.0299 31.1523 11.711 31.1727 11.3938 31.1378C11.0729 31.0816 10.7609 30.947 10.4577 30.7341C9.97761 30.397 9.71001 30.0025 9.6549 29.5506C9.59613 29.0773 9.6544 28.5734 9.82973 28.0391C10.0051 27.5047 10.2497 26.9533 10.5637 26.3848C10.874 25.795 11.1646 25.2194 11.4354 24.6581C11.5268 24.4781 11.6173 24.2599 11.7068 24.0034C11.7963 23.7469 11.7985 23.5324 11.7134 23.36L11.7403 23.3225Z" fill="black"/>
<path d="M10.9902 9.91942L12.4196 11.7598L13.5817 10.879L12.1523 9.03868L10.9902 9.91942ZM13.7924 13.5272L21.0952 22.9294L22.2573 22.0486L18.6059 17.3476L14.9545 12.6465L13.7924 13.5272Z" fill="black"/>
<path d="M21.8905 8.81251L25.9783 19.954L27.3554 19.4609L24.9708 12.9618C24.7847 12.4096 24.6873 11.8744 24.6786 11.3564C24.6792 10.8188 24.7644 10.3323 24.9344 9.89687C25.1137 9.44184 25.3803 9.04512 25.7342 8.7067C26.0975 8.34866 26.556 8.07052 27.1097 7.87228C27.6635 7.67403 28.1542 7.59606 28.5819 7.63838C29.0242 7.67547 29.41 7.80603 29.7395 8.03006C30.069 8.2541 30.3541 8.55918 30.5947 8.94533C30.83 9.31707 31.0348 9.74046 31.2091 10.2155L33.76 17.1681L35.1371 16.6751L32.507 9.50656C32.264 8.84441 31.9793 8.27051 31.6527 7.78486C31.3261 7.29921 30.9365 6.93384 30.4839 6.68875C30.026 6.42926 29.4905 6.29527 28.8773 6.28677C28.2788 6.27306 27.5861 6.40706 26.7991 6.68878C25.9977 6.97571 25.3383 7.44789 24.8212 8.10532C24.2987 8.74835 24.0304 9.45509 24.0164 10.2255L23.9726 10.2412L23.2676 8.31951L21.8905 8.81251Z" fill="black"/>
<path d="M41.4471 0L39.2786 16.2574L40.6156 16.4314L40.9132 14.2L40.9593 14.206C41.1881 15.0697 41.6496 15.7707 42.3439 16.3089C43.0535 16.8491 43.8924 17.1822 44.8605 17.3082C45.7672 17.4262 46.5722 17.3688 47.2755 17.136C47.9962 16.8901 48.6168 16.5153 49.1374 16.0116C49.66 15.4928 50.0785 14.8755 50.3928 14.1597C50.7092 13.4287 50.9231 12.6458 51.0344 11.8109C51.1458 10.976 51.1435 10.1726 51.0276 9.40084C50.9137 8.61386 50.6713 7.91055 50.3006 7.2909C49.9319 6.65607 49.4317 6.12768 48.8001 5.70573C48.1838 5.28578 47.4224 5.01681 46.5157 4.89881C46.0854 4.84281 45.6481 4.83994 45.2036 4.8902C44.7592 4.94045 44.3373 5.05543 43.9382 5.23513C43.541 5.39964 43.1752 5.62229 42.8407 5.90306C42.5215 6.18584 42.2568 6.52974 42.0464 6.93477L42.0003 6.92877L42.8993 0.188997L41.4471 0ZM49.5822 11.6219C49.5012 12.2291 49.3434 12.8262 49.1087 13.4134C48.8915 13.9874 48.5901 14.4887 48.2046 14.9173C47.8345 15.3479 47.3833 15.6829 46.8511 15.9225C46.3209 16.147 45.71 16.2142 45.0185 16.1242C44.2501 16.0242 43.6162 15.795 43.1168 15.4366C42.6348 15.065 42.2562 14.6219 41.9809 14.1073C41.7209 13.5947 41.5536 13.0325 41.4789 12.4204C41.4216 11.7953 41.4334 11.1791 41.5144 10.5719C41.5954 9.9647 41.7445 9.3741 41.9618 8.8001C42.1964 8.21291 42.5065 7.70503 42.892 7.27646C43.2928 6.84989 43.7737 6.5264 44.3347 6.30598C44.913 6.07239 45.5864 6.00559 46.3548 6.10559C47.0463 6.19559 47.6177 6.42438 48.0689 6.79198C48.5222 7.14439 48.8712 7.57588 49.1157 8.08645C49.3757 8.59902 49.5343 9.1679 49.5916 9.79308C49.6663 10.4051 49.6632 11.0147 49.5822 11.6219Z" fill="black"/>
<path d="M64.0364 13.9728C64.6078 14.3679 65.025 14.8338 65.2879 15.3706C65.5508 15.9074 65.6842 16.4668 65.6881 17.0488C65.7047 17.6396 65.605 18.2342 65.3892 18.8325C65.195 19.4271 64.9157 19.9815 64.5513 20.4958C64.187 21.0101 63.7508 21.4655 63.2429 21.8619C62.7566 22.2546 62.2297 22.5444 61.6621 22.7313C61.1072 22.927 60.5295 22.9948 59.9288 22.9347C59.3282 22.8745 58.7422 22.6469 58.1707 22.2519C57.5992 21.8569 57.1821 21.3909 56.9192 20.8541C56.6562 20.3173 56.5165 19.7535 56.4999 19.1627C56.4961 18.5807 56.5912 17.9924 56.7854 17.3979C57.0013 16.7995 57.2913 16.2432 57.6557 15.7289C58.0201 15.2146 58.4454 14.7611 58.9317 14.3685C59.4396 13.972 59.971 13.676 60.5259 13.4802C61.0935 13.2933 61.6776 13.2299 62.2782 13.29C62.8789 13.3502 63.4649 13.5778 64.0364 13.9728ZM64.7429 12.9756C63.9937 12.4576 63.2292 12.1347 62.4495 12.0068C61.6825 11.8878 60.9378 11.9242 60.2153 12.1162C59.4928 12.3082 58.8077 12.6476 58.1602 13.1343C57.5215 13.6085 56.9534 14.1968 56.4557 14.8993C55.958 15.6018 55.5885 16.3368 55.3473 17.1045C55.1151 17.8596 55.0313 18.6053 55.0962 19.3416C55.161 20.0779 55.3814 20.7815 55.7573 21.4525C56.1549 22.1198 56.7282 22.7124 57.4775 23.2303C58.2267 23.7483 58.9804 24.0731 59.7385 24.2047C60.5182 24.3326 61.2693 24.3005 61.9918 24.1085C62.7143 23.9165 63.3949 23.5834 64.0335 23.1092C64.6811 22.6225 65.2537 22.0279 65.7514 21.3254C66.2491 20.6229 66.6141 19.8942 66.8464 19.139C67.0876 18.3714 67.1757 17.6194 67.1109 16.8831C67.0461 16.1468 66.8193 15.4388 66.4307 14.759C66.0547 14.088 65.4922 13.4935 64.7429 12.9756Z" fill="black"/>
<path d="M73.2026 22.9322L63.7806 31.1997L64.4275 32.6498L74.8426 31.2785L74.8614 31.3205L66.8183 38.0089L67.4653 39.459L80 38.1689L79.3718 36.7608L68.7303 38.0802L68.7115 38.0381L76.9341 31.2966L76.2685 29.8045L65.6832 31.2499L65.6644 31.2079L73.8308 24.3403L73.2026 22.9322Z" fill="black"/>
</g>
<defs>
<clipPath id="clip0_3555_3603">
<rect width="80" height="40" fill="white"/>
</clipPath>
</defs>
</svg>
