<svg width="900" height="900" viewBox="0 0 900 900" fill="none" xmlns="http://www.w3.org/2000/svg">
<g clip-path="url(#clip0)">
<rect width="900" height="900" fill="#FBE3EB"/>
<path d="M203.634 188L240.211 85.017H387.228L423.805 188H469.97L336.447 -175.636H290.992L157.47 188H203.634ZM254.061 45.9545L312.299 -118.108H315.14L373.379 45.9545H254.061ZM591.184 194.392C638.769 194.392 663.627 168.824 672.15 151.068H674.281V188H716.184V8.3125C716.184 -78.3352 650.133 -88.2784 615.332 -88.2784C574.139 -88.2784 527.264 -74.0739 505.957 -24.358L545.73 -10.1534C554.963 -30.0398 576.802 -51.3466 616.752 -51.3466C655.282 -51.3466 674.281 -30.9276 674.281 4.05113V5.47158C674.281 25.7131 653.684 23.9375 603.968 30.3295C553.365 36.8991 498.144 48.0852 498.144 110.585C498.144 163.852 539.338 194.392 591.184 194.392ZM597.576 156.75C564.195 156.75 540.048 141.835 540.048 112.716C540.048 80.7557 569.167 70.8125 601.838 66.5511C619.593 64.4205 667.178 59.4489 674.281 50.9261V89.2784C674.281 123.369 647.292 156.75 597.576 156.75Z" fill="#FF693A"/>
<path d="M203.634 1015L240.211 912.017H387.228L423.805 1015H469.97L336.447 651.364H290.992L157.47 1015H203.634ZM254.061 872.955L312.299 708.892H315.14L373.379 872.955H254.061ZM591.184 1021.39C638.769 1021.39 663.627 995.824 672.15 978.068H674.281V1015H716.184V835.312C716.184 748.665 650.133 738.722 615.332 738.722C574.139 738.722 527.264 752.926 505.957 802.642L545.73 816.847C554.963 796.96 576.802 775.653 616.752 775.653C655.282 775.653 674.281 796.072 674.281 831.051V832.472C674.281 852.713 653.684 850.937 603.968 857.33C553.365 863.899 498.144 875.085 498.144 937.585C498.144 990.852 539.338 1021.39 591.184 1021.39ZM597.576 983.75C564.195 983.75 540.048 968.835 540.048 939.716C540.048 907.756 569.167 897.812 601.838 893.551C619.593 891.42 667.178 886.449 674.281 877.926V916.278C674.281 950.369 647.292 983.75 597.576 983.75Z" fill="#BFA8FF"/>
<line x1="450.5" y1="317" x2="450.5" y2="595" stroke="black"/>
<path d="M427.867 563.261L453.299 618.924L472.827 561.054L451.061 571.983L439.464 567.622L427.867 563.261Z" fill="#171717"/>
</g>
<defs>
<clipPath id="clip0">
<rect width="900" height="900" fill="white"/>
</clipPath>
</defs>
</svg>
